<?xml version="1.0" encoding="UTF-8"?>
<svg version="1.1" xmlns="http://www.w3.org/2000/svg" width="500" height="500">
<path d="M0 0 C18.54036065 16.15310027 33.22293953 35.11603433 44.5625 56.875 C45.03598877 57.78088867 45.03598877 57.78088867 45.51904297 58.70507812 C67.93004677 102.30662529 69.80163894 153.13178774 55.76123047 199.52246094 C41.61230407 243.40061526 10.5931985 281.13249854 -29.4375 303.875 C-30.55898438 304.52855469 -31.68046875 305.18210937 -32.8359375 305.85546875 C-48.82489419 314.94240124 -66.47846451 321.06617866 -84.4375 324.875 C-85.20868164 325.03871094 -85.97986328 325.20242188 -86.77441406 325.37109375 C-109.67748123 329.96119086 -135.62703028 329.92503323 -158.4375 324.875 C-159.76056152 324.59293701 -159.76056152 324.59293701 -161.11035156 324.30517578 C-210.51569363 313.48969076 -252.48118007 283.22987821 -279.74023438 240.84960938 C-305.88869139 199.14497016 -314.64042619 148.29636013 -303.83984375 100.21435547 C-294.85943386 62.36354104 -274.57067491 25.96810651 -244.4375 0.875 C-243.58929688 0.12734375 -242.74109375 -0.6203125 -241.8671875 -1.390625 C-172.93410374 -61.12010902 -68.60666692 -58.37469748 0 0 Z " fill="#EAFE18" transform="translate(370.4375,107.125)"/>
<path d="M0 0 C3.97478914 1.56972042 6.14291267 4.13969785 8.9375 7.3125 C12.06727383 10.84408379 15.23607601 14.27671999 18.64453125 17.54296875 C19.24467041 18.12071045 19.84480957 18.69845215 20.46313477 19.29370117 C21.64000837 20.41751175 22.82654749 21.53130007 24.02319336 22.6340332 C25.640625 24.1875 25.640625 24.1875 28 27 C27.55567137 30.48642786 26.46919153 31.7838546 23.75 33.9375 C19.76686097 37.25439455 16.13274739 40.81129983 12.5 44.5 C8.49179497 48.55549445 4.44126364 52.43985894 0.08984375 56.12890625 C-3.27496075 59.14150691 -6.40545188 62.38572042 -9.57836914 65.59790039 C-12.88599763 68.93059062 -16.29656607 72.05208116 -19.875 75.09375 C-22.69393956 77.62250461 -25.33938576 80.30646246 -28 83 C-31.22398087 86.26382615 -34.43517847 89.46830141 -37.9375 92.4375 C-41.65957668 95.6000996 -45.0686634 99.02970414 -48.5 102.5 C-52.50912858 106.55464806 -56.55864499 110.43978149 -60.91015625 114.12890625 C-64.27111118 117.13806029 -67.39823189 120.37827216 -70.56738281 123.58691406 C-73.98310835 127.02866417 -77.49775153 130.27896256 -81.203125 133.41015625 C-83.10832908 135.09584769 -84.82099944 136.896766 -86.5625 138.75 C-92.26721498 144.44192414 -97.94438074 145.34082366 -105.7421875 145.69140625 C-115.66812187 143.58482306 -122.92627875 134.48570746 -129.7890625 127.5390625 C-130.90227475 126.42278387 -132.01608644 125.30710275 -133.13046265 124.19198608 C-135.45291978 121.86495329 -137.77041789 119.53313731 -140.08398438 117.19726562 C-143.03003197 114.22293858 -145.98468235 111.25735202 -148.94266701 108.29490089 C-151.79045393 105.44192598 -154.6335651 102.58430872 -157.4765625 99.7265625 C-158.00899189 99.19225239 -158.54142128 98.65794228 -159.08998489 98.10744095 C-164.41475234 92.75835601 -169.68472834 87.39702397 -174.57899475 81.64558411 C-176.87046105 78.99196933 -179.32985593 76.53819961 -181.8125 74.0625 C-182.28880859 73.58232422 -182.76511719 73.10214844 -183.25585938 72.60742188 C-185.87789468 69.97189805 -185.87789468 69.97189805 -189 68 C-187.37843976 63.89891114 -184.4232297 61.16851833 -181.3359375 58.140625 C-180.50783066 57.316763 -180.50783066 57.316763 -179.66299438 56.47625732 C-177.90498185 54.72940707 -176.1401311 52.98965399 -174.375 51.25 C-173.1792292 50.06426409 -171.98391135 48.8780712 -170.7890625 47.69140625 C-167.86459747 44.78894915 -164.93398126 41.8928359 -162 39 C-158.07676763 40.59254345 -155.42727448 43.29020652 -152.49707031 46.24414062 C-151.96003983 46.77766647 -151.42300934 47.31119232 -150.8697052 47.86088562 C-149.10078929 49.62101769 -147.3392671 51.38834218 -145.578125 53.15625 C-144.35102094 54.38200685 -143.12362012 55.60746667 -141.89593506 56.8326416 C-139.32725937 59.3983709 -136.76223108 61.96767794 -134.19970703 64.53955078 C-130.9087032 67.84197285 -127.60877079 71.13530395 -124.30607986 74.42603302 C-121.77181756 76.95308419 -119.24231854 79.48485982 -116.71425629 82.01811218 C-115.49883751 83.23486828 -114.28192263 84.45013177 -113.06351471 85.66389465 C-111.36591776 87.35643605 -109.67482511 89.05521458 -107.98535156 90.75585938 C-107.47734512 91.25981735 -106.96933868 91.76377533 -106.44593811 92.28300476 C-103 95.77146797 -103 95.77146797 -103 98 C-102.34 98 -101.68 98 -101 98 C-100.505 96.515 -100.505 96.515 -100 95 C-98.609375 93.6328125 -98.609375 93.6328125 -96.75 92.125 C-92.78618399 88.77429222 -89.14057287 85.19191495 -85.5 81.5 C-82.11048996 78.07108264 -78.74799175 74.67733496 -75.0625 71.5625 C-71.15730021 68.25427342 -67.59719074 64.63486259 -64 61 C-59.8549191 56.81155484 -55.69083638 52.7732928 -51.1875 48.96875 C-48.00179249 46.10161324 -45.01415242 43.04568121 -42 40 C-37.85491669 35.81155808 -33.69083641 31.77329283 -29.1875 27.96875 C-25.35317621 24.51785858 -21.78004134 20.79886033 -18.15258789 17.13305664 C-14.43510201 13.3914345 -10.64724435 9.80984252 -6.62109375 6.3984375 C-4.28547695 4.38361626 -2.14651094 2.21358941 0 0 Z " fill="#020200" transform="translate(329,177)"/>
</svg>
